<?xml version="1.0" encoding="utf-8"?>
<!-- Generator: Adobe Illustrator 25.4.1, SVG Export Plug-In . SVG Version: 6.00 Build 0)  -->
<svg version="1.1" id="NGH" xmlns="http://www.w3.org/2000/svg" xmlns:xlink="http://www.w3.org/1999/xlink" x="0px" y="0px"
	 viewBox="0 0 185 105" style="enable-background:new 0 0 185 105;" xml:space="preserve">
<style type="text/css">
	.st0{fill:#FFFFFF;}
	.st1{fill:#010202;stroke:#FFFFFF;stroke-miterlimit:10;}
</style>
<g>
	<path class="st0" d="M41.7,8.2v37.9c0,0.5-0.4,1-1,1H36c-0.6,0-1.1-0.3-1.5-0.8l-22-32.6v28.2h5.4c0.5,0,1,0.4,1,1v3.2
		c0,0.5-0.4,1-1,1H3.3c-0.5,0-1-0.4-1-1v-3.2c0-0.5,0.4-1,1-1h3.4V8.2H3.3c-0.5,0-1-0.4-1-1V3.9c0-0.5,0.4-1,1-1h9.6
		c0.6,0,1.1,0.3,1.5,0.8L36,36.6V8.2h-3.4c-0.5,0-1-0.4-1-1V3.9c0-0.5,0.4-1,1-1h12.5c0.5,0,1,0.4,1,1v3.3c0,0.5-0.4,1-1,1H41.7z"/>
	<path class="st0" d="M90.8,31.8v11c0,0.6-0.3,1.1-0.9,1.4c-1.9,1-4.2,1.8-6.9,2.5c-2.8,0.7-5.7,1-8.7,1c-3.1,0-6-0.6-8.7-1.8
		c-2.8-1.2-5-2.8-6.6-4.9c-3.2-4.2-4.7-9.6-4.7-16.2c0-4.1,0.6-7.7,1.9-10.8c1.2-3.1,2.9-5.5,4.9-7.2c4-3.4,8.6-5.1,13.7-5.1
		c5.2,0,9.6,1.1,13.4,3.4c0.6,0.3,0.9,0.8,0.9,1.4v7.6c0,0.8-0.7,1.5-1.5,1.5h-3.2c-0.6,0-1-0.3-0.9-1l0.2-4.1
		c0-0.2-0.1-0.4-0.2-0.5c-2.7-1.8-5.5-2.8-8.6-2.8c-3.2,0-5.7,0.8-7.7,2.4c-1.9,1.6-3.2,3.5-4,5.9s-1.1,5.1-1.1,8.4
		c0,3.3,0.4,6.2,1.2,8.8c0.8,2.6,2.3,4.8,4.4,6.5c2.1,1.7,4.8,2.6,8.2,2.6c3.2,0,6-0.7,8.2-2.1c0.2-0.1,0.2-0.3,0.2-0.5v-7.1
		c0-0.3-0.2-0.5-0.5-0.5h-3.1c-0.8,0-1.5-0.7-1.5-1.5v-2.2c0-0.8,0.7-1.5,1.5-1.5l9.4,0c0.6,0,1,0.3,1,1"/>
	<path class="st0" d="M114,8.7V21c0,0.3,0.2,0.5,0.5,0.5h18.6c0.3,0,0.5-0.2,0.5-0.5V8.7c0-0.3-0.2-0.5-0.5-0.5h-2.4
		c-0.8,0-1.5-0.7-1.5-1.5V4.4c0-0.8,0.7-1.5,1.5-1.5h13.1c0.8,0,1.5,0.7,1.5,1.5v2.3c0,0.8-0.7,1.5-1.5,1.5h-2.4
		c-0.3,0-0.5,0.2-0.5,0.5v32.7c0,0.3,0.2,0.5,0.5,0.5h2.4c0.8,0,1.5,0.7,1.5,1.5v2.1c0,0.8-0.7,1.5-1.5,1.5h-13.1
		c-0.8,0-1.5-0.7-1.5-1.5v-2.1c0-0.8,0.7-1.5,1.5-1.5h2.4c0.3,0,0.5-0.2,0.5-0.5V27.7c0-0.3-0.2-0.5-0.5-0.5h-18.6
		c-0.3,0-0.5,0.2-0.5,0.5v13.7c0,0.3,0.2,0.5,0.5,0.5h2.4c0.8,0,1.5,0.7,1.5,1.5v2.1c0,0.8-0.7,1.5-1.5,1.5h-13.1
		c-0.8,0-1.5-0.7-1.5-1.5v-2.1c0-0.8,0.7-1.5,1.5-1.5h2.4c0.3,0,0.5-0.2,0.5-0.5V8.7c0-0.3-0.2-0.5-0.5-0.5h-2.4
		c-0.8,0-1.5-0.7-1.5-1.5V4.4c0-0.8,0.7-1.5,1.5-1.5H117c0.8,0,1.5,0.7,1.5,1.5v2.3c0,0.8-0.7,1.5-1.5,1.5h-2.4
		C114.3,8.2,114,8.4,114,8.7z"/>
</g>
<g>
	<path class="st0" d="M50.3,73.2v9.3c0,0.2-0.1,0.2-0.2,0.2h-1.2c-0.2,0-0.3-0.1-0.4-0.2l-5.4-8v6.9h1.3c0.2,0,0.2,0.1,0.2,0.2v0.8
		c0,0.2-0.1,0.2-0.2,0.2h-3.6c-0.2,0-0.2-0.1-0.2-0.2v-0.8c0-0.2,0.1-0.2,0.2-0.2h0.8v-8.3h-0.8c-0.2,0-0.2-0.1-0.2-0.2v-0.8
		c0-0.2,0.1-0.2,0.2-0.2h2.4c0.1,0,0.3,0.1,0.4,0.2l5.3,8.1v-7H48c-0.2,0-0.2-0.1-0.2-0.2v-0.8c0-0.2,0.1-0.2,0.2-0.2h3.1
		c0.2,0,0.2,0.1,0.2,0.2V73c0,0.2-0.1,0.2-0.2,0.2H50.3z"/>
	<path class="st0" d="M64.1,82.4c-0.8,0.4-1.6,0.5-2.6,0.5c-1.2,0-2.1-0.3-2.8-1c-0.9,0.7-2,1-3,1c-0.8,0-1.4-0.2-1.8-0.6
		c-0.5-0.4-0.7-1-0.7-1.8c0-0.7,0.2-1.2,0.6-1.7c0.3-0.3,0.8-0.6,1.5-0.8c0.5-0.1,0.9-0.2,1.4-0.2c0.5,0,0.9,0,1.2,0v-0.4
		c0-0.5-0.1-0.9-0.3-1.1c-0.2-0.2-0.6-0.4-1-0.4c-0.9,0-1.4,0.3-1.5,1c0,0.1-0.1,0.2-0.1,0.2c0,0-0.1,0.1-0.3,0.1h-0.8
		c-0.1,0-0.2,0-0.2-0.1c0,0-0.1-0.1,0-0.2c0.1-1.5,1.2-2.2,3.1-2.2c1.2,0,2,0.4,2.3,1.1c0.6-0.7,1.5-1.1,2.6-1.1
		c1.1,0,1.9,0.4,2.4,1.1c0.4,0.6,0.6,1.5,0.6,2.4c0,0.4,0,0.7-0.1,0.7S64.4,79,64.3,79h-4.7c0,1.7,0.8,2.6,2.3,2.6
		c0.5,0,1.1-0.1,1.7-0.4c0.1,0,0.2-0.1,0.2,0s0.1,0.1,0.1,0.2l0.2,0.6c0,0.1,0.1,0.2,0,0.3C64.3,82.3,64.2,82.4,64.1,82.4z
		 M54.9,80.5c0,0.8,0.5,1.2,1.4,1.2c0.4,0,0.7-0.1,1.1-0.2c0.4-0.1,0.7-0.3,0.8-0.5c-0.3-0.5-0.4-1.2-0.4-2c-0.3,0-0.5,0-0.7,0
		c-0.2,0-0.4,0-0.6,0.1s-0.5,0.1-0.6,0.1c-0.2,0.1-0.3,0.1-0.5,0.2C55.1,79.7,54.9,80,54.9,80.5z M62.2,76.2
		c-0.2-0.1-0.5-0.2-0.8-0.2c-0.3,0-0.6,0.1-0.8,0.2c-0.2,0.1-0.4,0.3-0.5,0.5c-0.2,0.4-0.3,0.7-0.4,1.1h3.2
		C62.9,77,62.6,76.4,62.2,76.2z"/>
	<path class="st0" d="M67.6,75.4c0.5-0.5,1.2-0.7,2.1-0.7s1.6,0.1,2.2,0.3c0.1,0,0.2,0.1,0.2,0.3V77c0,0.2-0.1,0.2-0.2,0.2h-0.9
		c-0.2,0-0.2-0.1-0.2-0.2l0.1-0.8c-0.3-0.2-0.7-0.3-1.1-0.3c-0.9,0-1.3,0.3-1.3,0.9c0,0.3,0.1,0.6,0.4,0.7s0.6,0.3,1,0.4
		c0.4,0.1,0.8,0.2,1.2,0.4c0.4,0.1,0.7,0.4,1,0.7c0.3,0.3,0.4,0.8,0.4,1.3c0,0.8-0.3,1.4-0.8,1.9c-0.6,0.5-1.4,0.7-2.4,0.7
		c-0.7,0-1.5-0.1-2.3-0.3c-0.1,0-0.2-0.1-0.2-0.3v-1.7c0-0.2,0.1-0.2,0.2-0.2h0.9c0.2,0,0.2,0.1,0.2,0.2l0,0.8
		c0.3,0.2,0.7,0.3,1.2,0.3c0.9,0,1.4-0.3,1.4-1c0-0.3-0.1-0.6-0.4-0.8s-0.6-0.3-1-0.5c-0.4-0.1-0.8-0.2-1.2-0.4
		c-0.4-0.1-0.7-0.4-1-0.7s-0.4-0.8-0.4-1.3C66.8,76.5,67.1,75.9,67.6,75.4z"/>
	<path class="st0" d="M76.8,76.2v4c0,0.5,0.1,0.9,0.2,1.1c0.1,0.2,0.4,0.3,0.7,0.3s0.7-0.1,1-0.2c0.1,0,0.2,0,0.3,0.1l0.3,0.7
		c0,0,0,0.1,0,0.1s-0.1,0.1-0.2,0.2C78.6,82.9,78,83,77.3,83c-0.9,0-1.6-0.2-1.9-0.7c-0.2-0.3-0.3-0.6-0.4-0.9
		c0-0.4-0.1-0.8-0.1-1.3v-3.9h-0.9c-0.2,0-0.2-0.1-0.2-0.2v-0.8c0-0.2,0.1-0.2,0.2-0.2H75v-2.2c0-0.2,0.1-0.2,0.2-0.2h1.3
		c0.2,0,0.2,0.1,0.2,0.2v2.2h1.6c0.2,0,0.2,0.1,0.2,0.2V76c0,0.2-0.1,0.2-0.2,0.2H76.8z"/>
	<path class="st0" d="M82.9,75.1l1.9,5.9l1.7-4.8h-0.8c-0.2,0-0.2-0.1-0.2-0.2v-0.8c0-0.2,0.1-0.2,0.2-0.2H88c0.1,0,0.2,0,0.3,0.1
		c0,0.1,0.1,0.1,0.1,0.2s0,0.1,0,0.2l-2.7,7.2c0,0.1-0.1,0.2-0.3,0.2h-1.4c-0.1,0-0.3-0.1-0.3-0.2l-2.2-6.4h-0.8
		c-0.2,0-0.2-0.1-0.2-0.2v-0.8c0-0.2,0.1-0.2,0.2-0.2h2.1C82.8,74.9,82.9,75,82.9,75.1z"/>
	<path class="st0" d="M93.6,83c-1.3,0-2.2-0.4-2.8-1.1c-0.6-0.7-0.9-1.7-0.9-2.9c0-1.2,0.3-2.2,0.9-3c0.6-0.8,1.5-1.2,2.7-1.2
		c0.6,0,1.1,0.1,1.5,0.3s0.7,0.5,1,0.9c0.4,0.7,0.6,1.6,0.6,2.5c0,0.4,0,0.7-0.1,0.7c0,0-0.1,0.1-0.2,0.1h-4.7
		c0.1,0.8,0.2,1.4,0.6,1.8c0.3,0.4,0.9,0.6,1.7,0.6c0.6,0,1.2-0.1,1.8-0.4c0.1-0.1,0.3,0,0.3,0.1l0.3,0.7c0.1,0.1,0,0.2-0.1,0.3
		C95.6,82.8,94.7,83,93.6,83z M91.7,78h3.3c0-1.3-0.5-2-1.6-2c-0.6,0-1.1,0.2-1.3,0.6C91.9,77,91.8,77.5,91.7,78z"/>
	<path class="st0" d="M105.9,81.5h0.7c0.2,0,0.2,0.1,0.2,0.2v0.8c0,0.2-0.1,0.2-0.2,0.2h-1.8c-0.1,0-0.2-0.1-0.2-0.2l-0.1-0.9
		c-0.5,0.9-1.4,1.4-2.6,1.4c-1,0-1.9-0.3-2.4-1c-0.6-0.7-0.8-1.7-0.8-3.1s0.3-2.4,1-3.2c0.7-0.7,1.5-1.1,2.5-1.1
		c0.5,0,0.9,0.1,1.2,0.3c0.4,0.2,0.6,0.4,0.8,0.6v-3.4h-0.8c-0.2,0-0.2-0.1-0.2-0.2v-0.8c0-0.2,0.1-0.2,0.2-0.2h2.4
		c0.2,0,0.2,0.1,0.2,0.2V81.5z M104.1,79.8V77c-0.1-0.2-0.4-0.4-0.7-0.6c-0.3-0.2-0.7-0.3-1-0.3c-1.3,0-2,0.9-2,2.7
		c0,1.4,0.3,2.2,0.9,2.6c0.3,0.1,0.6,0.2,1.1,0.2c0.4,0,0.9-0.2,1.2-0.5C104,80.8,104.1,80.3,104.1,79.8z"/>
	<path class="st0" d="M49.7,95.1v2.7c0,0.1-0.1,0.3-0.2,0.3c-0.5,0.2-1,0.5-1.7,0.6c-0.7,0.2-1.4,0.3-2.1,0.3s-1.5-0.1-2.2-0.4
		c-0.7-0.3-1.2-0.7-1.6-1.2c-0.8-1-1.2-2.4-1.2-4c0-1,0.2-1.9,0.5-2.6s0.7-1.4,1.2-1.8c1-0.8,2.1-1.2,3.4-1.2c1.3,0,2.4,0.3,3.3,0.8
		c0.1,0.1,0.2,0.2,0.2,0.4v2c0,0.2-0.1,0.2-0.2,0.2h-0.9c-0.2,0-0.2-0.1-0.2-0.2l0-1.1c-0.7-0.5-1.4-0.7-2.2-0.7
		c-0.8,0-1.4,0.2-1.9,0.6c-0.5,0.4-0.8,0.9-1,1.4c-0.2,0.6-0.3,1.3-0.3,2.1s0.1,1.5,0.3,2.2s0.6,1.2,1.1,1.6c0.5,0.4,1.2,0.6,2,0.6
		c0.8,0,1.5-0.2,2.1-0.6v-2h-1c-0.2,0-0.2-0.1-0.2-0.2V94c0-0.2,0.1-0.2,0.2-0.2h3.5c0.2,0,0.2,0.1,0.2,0.2v0.8
		c0,0.2-0.1,0.2-0.2,0.2H49.7z"/>
	<path class="st0" d="M54.5,91.1l1.9,5.8l1.7-4.7h-0.8c-0.2,0-0.2-0.1-0.2-0.2v-0.8c0-0.2,0.1-0.2,0.2-0.2h2.3c0.1,0,0.2,0,0.3,0.1
		c0,0.1,0.1,0.1,0.1,0.2s0,0.1,0,0.2l-3.4,8.9c-0.2,0.4-0.3,0.7-0.4,0.9c-0.1,0.2-0.3,0.5-0.5,0.7c-0.4,0.5-1,0.7-1.7,0.7
		s-1.4-0.1-1.9-0.4c-0.1,0-0.1-0.1-0.1-0.2c0-0.1,0-0.1,0-0.1l0.3-0.8c0-0.1,0.1-0.2,0.3-0.1c0.5,0.2,0.9,0.3,1.3,0.3
		c0.3,0,0.6-0.1,0.8-0.2c0.2-0.2,0.4-0.5,0.6-1l0.4-1.1l-2.4-6.8h-0.8c-0.2,0-0.2-0.1-0.2-0.2v-0.8c0-0.2,0.1-0.2,0.2-0.2h2.1
		C54.4,90.9,54.5,91,54.5,91.1z"/>
	<path class="st0" d="M61.4,92v-0.8c0-0.2,0.1-0.2,0.2-0.2h2.2c0.1,0,0.2,0.1,0.2,0.2l0.1,0.9c0.6-0.9,1.4-1.3,2.5-1.3
		c1.1,0,1.8,0.5,2.2,1.4c0.6-0.9,1.4-1.4,2.5-1.4c1.7,0,2.5,0.9,2.5,2.7v4.1h0.9c0.2,0,0.2,0.1,0.2,0.2v0.8c0,0.2-0.1,0.2-0.2,0.2
		h-3.5c-0.2,0-0.2-0.1-0.2-0.2v-0.8c0-0.2,0.1-0.2,0.2-0.2h0.8v-3.3c0-0.7-0.1-1.2-0.3-1.5c-0.2-0.3-0.5-0.5-1-0.5
		c-0.5,0-0.9,0.1-1.2,0.4c-0.3,0.3-0.5,0.6-0.5,1v3.9h0.8c0.2,0,0.2,0.1,0.2,0.2v0.8c0,0.2-0.1,0.2-0.2,0.2h-3.3
		c-0.2,0-0.2-0.1-0.2-0.2v-0.8c0-0.2,0.1-0.2,0.2-0.2h0.7v-3.3c0-0.7-0.1-1.2-0.3-1.5s-0.5-0.5-1-0.5s-0.9,0.2-1.2,0.5
		c-0.3,0.3-0.5,0.7-0.5,1.1v3.7h1c0.2,0,0.2,0.1,0.2,0.2v0.8c0,0.2-0.1,0.2-0.2,0.2h-3.6c-0.2,0-0.2-0.1-0.2-0.2v-0.8
		c0-0.2,0.1-0.2,0.2-0.2h0.8v-5.3h-0.9C61.5,92.2,61.4,92.1,61.4,92z"/>
	<path class="st0" d="M76.5,92v-0.8c0-0.2,0.1-0.2,0.2-0.2h2.2c0.1,0,0.2,0.1,0.3,0.2l0.1,0.9c0.6-0.9,1.5-1.3,2.6-1.3
		c1.7,0,2.5,0.9,2.5,2.7v4.1h0.9c0.2,0,0.2,0.1,0.2,0.2v0.8c0,0.2-0.1,0.2-0.2,0.2h-3.5c-0.2,0-0.2-0.1-0.2-0.2v-0.8
		c0-0.2,0.1-0.2,0.2-0.2h0.8v-3.3c0-0.7-0.1-1.2-0.3-1.5c-0.2-0.3-0.5-0.5-1.1-0.5c-0.5,0-1,0.2-1.3,0.5c-0.4,0.3-0.5,0.7-0.5,1.1
		v3.7h1c0.2,0,0.2,0.1,0.2,0.2v0.8c0,0.2-0.1,0.2-0.2,0.2h-3.6c-0.2,0-0.2-0.1-0.2-0.2v-0.8c0-0.2,0.1-0.2,0.2-0.2h0.8v-5.3h-0.9
		C76.6,92.2,76.5,92.1,76.5,92z"/>
	<path class="st0" d="M91.8,94v-0.6c0-0.8-0.2-1.2-0.6-1.4c-0.2-0.1-0.5-0.1-0.9-0.1c-0.7,0-1.2,0.3-1.3,1c0,0.2-0.1,0.2-0.2,0.2h-1
		c-0.2,0-0.2-0.1-0.2-0.2c0-0.8,0.4-1.3,0.9-1.7c0.6-0.4,1.3-0.5,2.2-0.5c1.9,0,2.9,0.9,2.9,2.6v4.2h0.7c0.2,0,0.2,0.1,0.2,0.2v0.8
		c0,0.2-0.1,0.2-0.2,0.2h-1.9c-0.1,0-0.2-0.1-0.2-0.2L92,97.8c-0.6,0.8-1.4,1.2-2.5,1.2c-0.7,0-1.2-0.2-1.7-0.5
		c-0.4-0.4-0.7-0.9-0.7-1.7c0-1,0.4-1.7,1.3-2.1c0.7-0.3,1.6-0.5,2.6-0.5C91.2,94.1,91.4,94.1,91.8,94z M91.8,96.4v-1.2
		c-1,0-1.7,0-1.9,0.1c-0.2,0.1-0.4,0.2-0.6,0.3c-0.3,0.2-0.5,0.5-0.5,1c0,0.7,0.4,1.1,1.3,1.1c0.6,0,1-0.1,1.3-0.4
		C91.7,97,91.8,96.7,91.8,96.4z"/>
	<path class="st0" d="M97.3,91.4c0.5-0.5,1.2-0.7,2.1-0.7s1.6,0.1,2.2,0.3c0.1,0,0.2,0.1,0.2,0.3V93c0,0.2-0.1,0.2-0.2,0.2h-0.9
		c-0.2,0-0.2-0.1-0.2-0.2l0.1-0.8c-0.3-0.2-0.7-0.3-1.1-0.3c-0.9,0-1.3,0.3-1.3,0.9c0,0.3,0.1,0.6,0.4,0.7s0.6,0.3,1,0.4
		c0.4,0.1,0.8,0.2,1.2,0.4c0.4,0.1,0.7,0.4,1,0.7c0.3,0.3,0.4,0.8,0.4,1.3c0,0.8-0.3,1.4-0.8,1.9c-0.6,0.5-1.4,0.7-2.4,0.7
		c-0.7,0-1.5-0.1-2.3-0.3c-0.1,0-0.2-0.1-0.2-0.3v-1.7c0-0.2,0.1-0.2,0.2-0.2h0.9c0.2,0,0.2,0.1,0.2,0.2l0,0.8
		c0.3,0.2,0.7,0.3,1.2,0.3c0.9,0,1.4-0.3,1.4-1c0-0.3-0.1-0.6-0.4-0.8s-0.6-0.3-1-0.5c-0.4-0.1-0.8-0.2-1.2-0.4
		c-0.4-0.1-0.7-0.4-1-0.7s-0.4-0.8-0.4-1.3C96.5,92.5,96.7,91.9,97.3,91.4z"/>
	<path class="st0" d="M106.7,97.5h1c0.2,0,0.2,0.1,0.2,0.2v0.8c0,0.2-0.1,0.2-0.2,0.2h-3.8c-0.2,0-0.2-0.1-0.2-0.2v-0.8
		c0-0.2,0.1-0.2,0.2-0.2h1v-5.3h-0.9c-0.2,0-0.2-0.1-0.2-0.2v-0.8c0-0.2,0.1-0.2,0.2-0.2h2.4c0.2,0,0.2,0.1,0.2,0.2V97.5z
		 M104.8,89.5c-0.2-0.2-0.3-0.5-0.3-0.8c0-0.3,0.1-0.6,0.3-0.8s0.5-0.3,0.8-0.3c0.3,0,0.6,0.1,0.8,0.3s0.3,0.5,0.3,0.8
		c0,0.3-0.1,0.6-0.3,0.8c-0.2,0.2-0.5,0.3-0.8,0.3C105.3,89.8,105,89.7,104.8,89.5z"/>
	<path class="st0" d="M117.1,97.5h0.7c0.2,0,0.2,0.1,0.2,0.2v0.8c0,0.2-0.1,0.2-0.2,0.2H116c-0.1,0-0.2-0.1-0.2-0.2l-0.1-0.9
		c-0.7,0.9-1.6,1.3-2.7,1.3c-1.7,0-2.6-0.9-2.6-2.7v-4.1h-0.8c-0.2,0-0.2-0.1-0.2-0.2v-0.8c0-0.2,0.1-0.2,0.2-0.2h2.4
		c0.2,0,0.2,0.1,0.2,0.2v4.7c0,0.6,0.1,1.1,0.2,1.4c0.2,0.3,0.5,0.4,1.1,0.4c0.5,0,1-0.2,1.3-0.5c0.4-0.3,0.5-0.7,0.5-1.1v-3.8h-1
		c-0.2,0-0.2-0.1-0.2-0.2v-0.8c0-0.2,0.1-0.2,0.2-0.2h2.6c0.2,0,0.2,0.1,0.2,0.2V97.5z"/>
	<path class="st0" d="M119.7,92v-0.8c0-0.2,0.1-0.2,0.2-0.2h2.2c0.1,0,0.2,0.1,0.2,0.2l0.1,0.9c0.6-0.9,1.4-1.3,2.5-1.3
		s1.8,0.5,2.2,1.4c0.6-0.9,1.4-1.4,2.5-1.4c1.7,0,2.5,0.9,2.5,2.7v4.1h0.9c0.2,0,0.2,0.1,0.2,0.2v0.8c0,0.2-0.1,0.2-0.2,0.2h-3.5
		c-0.2,0-0.2-0.1-0.2-0.2v-0.8c0-0.2,0.1-0.2,0.2-0.2h0.8v-3.3c0-0.7-0.1-1.2-0.3-1.5s-0.5-0.5-1-0.5c-0.5,0-0.9,0.1-1.2,0.4
		c-0.3,0.3-0.5,0.6-0.5,1v3.9h0.8c0.2,0,0.2,0.1,0.2,0.2v0.8c0,0.2-0.1,0.2-0.2,0.2h-3.3c-0.2,0-0.2-0.1-0.2-0.2v-0.8
		c0-0.2,0.1-0.2,0.2-0.2h0.7v-3.3c0-0.7-0.1-1.2-0.3-1.5c-0.2-0.3-0.5-0.5-1-0.5c-0.5,0-0.9,0.2-1.2,0.5c-0.3,0.3-0.5,0.7-0.5,1.1
		v3.7h1c0.2,0,0.2,0.1,0.2,0.2v0.8c0,0.2-0.1,0.2-0.2,0.2H120c-0.2,0-0.2-0.1-0.2-0.2v-0.8c0-0.2,0.1-0.2,0.2-0.2h0.8v-5.3h-0.9
		C119.8,92.2,119.7,92.1,119.7,92z"/>
	<path class="st0" d="M138.9,95c0-0.8,0.1-1.5,0.4-2.1c0.2-0.6,0.6-1,1-1.3c0.8-0.6,1.6-0.8,2.5-0.8c0.7,0,1.2,0.1,1.6,0.3
		c0.4,0.2,0.8,0.4,1,0.7c0.2,0.3,0.5,0.7,0.6,1.2s0.3,1.1,0.3,1.8c0,1.4-0.4,2.5-1.1,3.3c-0.7,0.7-1.6,1.1-2.8,1.1
		c-1.1,0-2-0.3-2.6-1C139.3,97.3,138.9,96.3,138.9,95z M142.6,97.7c0.6,0,1.1-0.2,1.4-0.7c0.3-0.5,0.4-1.2,0.4-2.1
		c0-0.9-0.1-1.6-0.4-2.1s-0.8-0.7-1.4-0.7c-1.2,0-1.8,0.9-1.8,2.6C140.8,96.7,141.4,97.7,142.6,97.7z"/>
	<path class="st0" d="M155.5,92.2v5.7c0,0.7,0,1.3-0.1,1.9c-0.1,0.9-0.4,1.6-1,2.1c-0.6,0.5-1.4,0.8-2.5,0.8s-2-0.2-2.7-0.5
		c-0.1-0.1-0.2-0.2-0.1-0.3l0.3-0.8c0-0.1,0.1-0.2,0.3-0.1c0.7,0.3,1.3,0.4,2,0.4c0.7,0,1.2-0.2,1.5-0.5c0.3-0.3,0.5-0.9,0.5-1.7
		v-1.2c-0.5,0.8-1.2,1.2-2.3,1.2c-1,0-1.8-0.3-2.4-1c-0.5-0.7-0.8-1.7-0.8-3.1c0-1.4,0.3-2.4,1-3.1s1.5-1.1,2.4-1.1
		c1,0,1.8,0.3,2.4,1l0.2-0.6c0.1-0.2,0.1-0.2,0.3-0.2h2c0.2,0,0.2,0.1,0.2,0.2V92c0,0.2-0.1,0.2-0.2,0.2H155.5z M153.7,95.8V93
		c0-0.1-0.1-0.1-0.2-0.2c-0.1-0.1-0.3-0.2-0.6-0.4c-0.3-0.2-0.6-0.2-1-0.2c-0.6,0-1,0.2-1.4,0.6c-0.4,0.4-0.5,1.1-0.5,2
		c0,0.9,0.1,1.6,0.4,2.1c0.3,0.5,0.8,0.7,1.5,0.7c0.5,0,0.9-0.2,1.3-0.5C153.6,96.8,153.7,96.4,153.7,95.8z"/>
	<path class="st0" d="M165.1,89.2v3.3h4.8v-3.3h-0.8c-0.2,0-0.2-0.1-0.2-0.2v-0.8c0-0.2,0.1-0.2,0.2-0.2h3.5c0.2,0,0.2,0.1,0.2,0.2
		V89c0,0.2-0.1,0.2-0.2,0.2h-0.8v8.3h0.8c0.2,0,0.2,0.1,0.2,0.2v0.8c0,0.2-0.1,0.2-0.2,0.2h-3.5c-0.2,0-0.2-0.1-0.2-0.2v-0.8
		c0-0.2,0.1-0.2,0.2-0.2h0.8v-3.6h-4.8v3.6h0.8c0.2,0,0.2,0.1,0.2,0.2v0.8c0,0.2-0.1,0.2-0.2,0.2h-3.5c-0.2,0-0.2-0.1-0.2-0.2v-0.8
		c0-0.2,0.1-0.2,0.2-0.2h0.8v-8.3h-0.8c-0.2,0-0.2-0.1-0.2-0.2v-0.8c0-0.2,0.1-0.2,0.2-0.2h3.5c0.2,0,0.2,0.1,0.2,0.2V89
		c0,0.2-0.1,0.2-0.2,0.2H165.1z"/>
	<path class="st0" d="M177.8,89.2v3.3h2.5l-0.1-0.8c0-0.2,0.1-0.2,0.2-0.2h0.9c0.2,0,0.2,0.1,0.2,0.2v2.8c0,0.2-0.1,0.2-0.2,0.2
		h-0.9c-0.2,0-0.2-0.1-0.2-0.2l0-0.8h-2.5v3.7h1.6c0.2,0,0.2,0.1,0.2,0.2v0.8c0,0.2-0.1,0.2-0.2,0.2h-4.3c-0.2,0-0.2-0.1-0.2-0.2
		v-0.8c0-0.2,0.1-0.2,0.2-0.2h0.8v-8.3h-0.8c-0.2,0-0.2-0.1-0.2-0.2v-0.8c0-0.2,0.1-0.2,0.2-0.2h7.2c0.2,0,0.2,0.1,0.2,0.2v2.1
		c0,0.2-0.1,0.2-0.2,0.2h-0.9c-0.2,0-0.2-0.1-0.2-0.2l0.1-1.1H177.8z"/>
</g>
<g>
	<path class="st1" d="M30.6,89.8V69.3H3.4v20.5c0,9.8,13.6,13.4,13.6,13.4S30.6,99.6,30.6,89.8"/>
	<path class="st0" d="M17,76.7c-1.1,0-2.5,0.2-3.5,0.7c-0.7-1.9-2-3.7-3.6-3.9c1.1-0.7,2.4-0.1,2.4-0.1s0.7-0.5,1.3,0
		c0.4,0.3,0.6,0.9,0.6,1.4c-0.2-0.2-0.5-0.4-0.7-0.3c-0.4,0.2-0.2,0.8,0.2,1c0.1,0.1,0.3,0.1,0.4,0c0.2,0,0.5-0.1,1-0.3
		c0.5-0.1,1-0.2,1-0.2s0-0.8-0.3-1c-0.1-0.1-0.3,0.1-0.3,0.4c-0.5-0.3-0.9-0.7-0.9-1.2c-0.1-0.7,0.4-0.8,1-0.7
		c0.3,0.1,0.5,0.1,0.5,0.1c0,0-0.1-0.5,0.1-1c0.2-0.5,0.7-0.9,0.8-1.4c0.1,0.5,0.6,0.9,0.8,1.4c0.2,0.5,0.1,1,0.1,1
		c0,0,0.2-0.1,0.5-0.1c0.5-0.1,1,0,1,0.7c0,0.5-0.5,0.9-0.9,1.2c0-0.3-0.1-0.5-0.3-0.4c-0.3,0.2-0.3,1-0.3,1s0.4,0.1,1,0.2
		c0.6,0.1,0.9,0.2,1,0.3c0.2,0,0.3,0.1,0.4,0c0.3-0.2,0.6-0.8,0.2-1c-0.2-0.1-0.5,0.1-0.7,0.3c0-0.5,0.1-1.1,0.6-1.4
		c0.6-0.5,1.3,0,1.3,0s1.3-0.6,2.4,0.1c-1.6,0.2-2.9,2-3.6,3.9C19.5,77,18.1,76.7,17,76.7"/>
	<path class="st0" d="M26,91.3c-0.1,0-0.2,0-0.2,0.1v-4.5c0.1,0,0.2,0.1,0.2,0.1c0.2,0,0.4-0.2,0.4-0.4c0-0.2-0.2-0.4-0.4-0.4
		c-0.2,0-0.4,0.2-0.4,0.4c0,0.1,0,0.2,0.1,0.2h-3.9l-0.8,0.7v3.9c-0.1,0-0.2-0.1-0.2-0.1c-0.2,0-0.4,0.2-0.4,0.4
		c0,0.2,0.2,0.4,0.4,0.4c0.2,0,0.4-0.2,0.4-0.4c0-0.1,0-0.2-0.1-0.2h4.6c0,0.1-0.1,0.1-0.1,0.2c0,0.2,0.2,0.4,0.4,0.4
		c0.2,0,0.4-0.2,0.4-0.4C26.4,91.5,26.2,91.3,26,91.3 M24.7,90.5H22v-2.6h2.7V90.5z"/>
	<polygon class="st0" points="12.3,80.9 13,80.2 9.1,76.3 7.7,77.6 8.4,78.4 9.1,77.7 9.7,78.3 8.4,79.5 7.1,78.2 4.7,80.5 
		4.7,80.5 6.4,82.1 7.1,81.4 6.2,80.5 6.8,79.9 8.1,81.2 10.4,79 11,79.6 7.4,83.1 7.4,83.1 8.7,84.4 10.1,83.1 9.4,82.5 10.3,81.7 
		10.9,82.3 11.6,81.6 11,81 11.7,80.3 	"/>
	<polygon class="st0" points="8.2,75 18.6,85.2 19.3,84.5 9,74.3 	"/>
	<path class="st0" d="M21.7,86c0.1,0.1,0.1,0.3,0,0.4l-1.3,1.3c-0.1,0.1-0.3,0.1-0.4,0c-0.1-0.1-0.1-0.3,0-0.4l1.3-1.3
		C21.5,85.9,21.6,85.9,21.7,86"/>
	<path class="st0" d="M20.2,84.4c0.1,0.1,0.1,0.3,0,0.4l-1.3,1.3c-0.1,0.1-0.3,0.1-0.4,0c-0.1-0.1-0.1-0.3,0-0.4l1.3-1.3
		C19.9,84.3,20.1,84.3,20.2,84.4"/>
	<path class="st0" d="M21.5,84.6c0.2,0.2,0.3,0.5,0.1,0.7l-2.1,2.1c-0.2,0.2-0.5,0.2-0.7-0.1c-0.2-0.2-0.3-0.5-0.1-0.7l2.1-2.1
		C21,84.4,21.3,84.4,21.5,84.6"/>
	<path class="st0" d="M13.3,91.3c-0.1,0-0.2,0-0.2,0.1v-3.9l-0.8-0.7H8.4c0-0.1,0.1-0.2,0.1-0.2c0-0.2-0.2-0.4-0.4-0.4
		c-0.2,0-0.4,0.2-0.4,0.4C7.6,86.8,7.8,87,8,87c0.1,0,0.2,0,0.3-0.1v4.5c-0.1,0-0.2-0.1-0.3-0.1c-0.2,0-0.4,0.2-0.4,0.4
		c0,0.2,0.2,0.4,0.4,0.4c0.2,0,0.4-0.2,0.4-0.4c0-0.1,0-0.2-0.1-0.2h4.6c0,0.1-0.1,0.2-0.1,0.2c0,0.2,0.2,0.4,0.4,0.4
		c0.2,0,0.4-0.2,0.4-0.4C13.8,91.5,13.6,91.3,13.3,91.3 M9.3,87.9H12v2.6H9.3V87.9z"/>
	<polygon class="st0" points="21.7,80.9 21,80.2 24.9,76.3 26.3,77.6 25.6,78.4 24.9,77.7 24.3,78.3 25.6,79.5 26.9,78.2 29.3,80.5 
		29.3,80.5 27.6,82.1 26.9,81.4 27.8,80.5 27.2,79.9 25.9,81.2 23.6,79 23,79.6 26.6,83.1 26.6,83.1 25.3,84.4 23.9,83.1 24.6,82.5 
		23.7,81.7 23.1,82.3 22.4,81.6 23,81 22.3,80.3 	"/>
	<polygon class="st0" points="25.8,75 18,82.7 17.2,82 25,74.3 	"/>
	<polygon class="st0" points="16.8,83.9 15.4,85.2 14.7,84.5 16,83.2 	"/>
	<path class="st0" d="M12.3,86c-0.1,0.1-0.1,0.3,0,0.4l1.3,1.3c0.1,0.1,0.3,0.1,0.4,0c0.1-0.1,0.1-0.3,0-0.4L12.6,86
		C12.5,85.9,12.4,85.9,12.3,86"/>
	<path class="st0" d="M13.8,84.4c-0.1,0.1-0.1,0.3,0,0.4l1.3,1.3c0.1,0.1,0.3,0.1,0.4,0c0.1-0.1,0.1-0.3,0-0.4l-1.3-1.3
		C14.1,84.3,13.9,84.3,13.8,84.4"/>
	<path class="st0" d="M12.5,84.6c-0.2,0.2-0.3,0.5-0.1,0.7l2.1,2.1c0.2,0.2,0.5,0.2,0.7-0.1c0.2-0.2,0.3-0.5,0.1-0.7l-2.1-2.1
		C13,84.4,12.7,84.4,12.5,84.6"/>
	<path class="st0" d="M25.1,93.1c-0.9,0-1.5,0.3-2.1,0.6c-0.6,0.3-1.1,0.6-2,0.6c-0.9,0-1.4-0.3-2-0.6c-0.6-0.3-1.1-0.6-2.1-0.6
		c-0.9,0-1.5,0.3-2.1,0.6c-0.6,0.3-1.1,0.6-2,0.6c-0.9,0-1.4-0.3-2-0.6c-0.6-0.3-1.1-0.6-2.1-0.6c-0.9,0-1.5,0.3-2.1,0.6
		c-0.5,0.3-1,0.5-1.8,0.6c0.7,1.4,1.7,2.5,2.9,3.5c0.3-0.1,0.6-0.2,1-0.2c0.7,0,1.1,0.2,1.6,0.5c0.6,0.3,1.3,0.7,2.4,0.7
		c1.1,0,1.8-0.4,2.4-0.7c0.5-0.3,0.9-0.5,1.6-0.5c0.7,0,1.1,0.2,1.6,0.5c0.6,0.3,1.3,0.7,2.4,0.7c1.1,0,1.8-0.4,2.4-0.7
		c0.5-0.3,0.9-0.5,1.6-0.5c0.4,0,0.7,0.1,1,0.2c1.1-1,2.2-2.2,2.9-3.5c-0.8,0-1.3-0.3-1.8-0.6C26.6,93.4,26,93.1,25.1,93.1"/>
</g>
</svg>
